<?xml version="1.0" standalone="no"?>
<!DOCTYPE svg PUBLIC "-//W3C//DTD SVG 20010904//EN"
 "http://www.w3.org/TR/2001/REC-SVG-20010904/DTD/svg10.dtd">
<svg version="1.0" xmlns="http://www.w3.org/2000/svg"
 width="553.000000pt" height="473.000000pt" viewBox="0 0 553.000000 473.000000"
 preserveAspectRatio="xMidYMid meet">
<metadata>
Created by potrace 1.13, written by Peter Selinger 2001-2015
</metadata>
<g transform="translate(0.000000,473.000000) scale(0.100000,-0.100000)"
fill="#000000" stroke="none">
<path d="M1840 4265 l0 -455 449 0 c350 0 450 -3 454 -12 4 -10 6 -10 6 0 1 9
98 12 451 12 l450 0 0 225 c0 124 3 225 8 225 4 0 22 -9 40 -20 32 -20 32 -20
32 0 0 20 5 20 645 18 603 -3 645 -4 662 -21 17 -17 18 -98 21 -1627 2 -1603
2 -1610 -18 -1610 -20 0 -20 0 0 -32 11 -18 20 -36 20 -40 0 -5 -99 -8 -219
-8 -201 0 -220 2 -224 18 -4 16 -5 16 -6 0 -1 -17 -30 -18 -451 -18 l-450 0 0
-225 c0 -124 -3 -225 -7 -225 -5 0 -23 9 -40 20 -33 20 -33 20 -33 0 0 -20 -9
-20 -865 -20 -856 0 -865 0 -865 20 0 20 0 20 -32 0 -18 -11 -36 -20 -40 -20
-5 0 -8 101 -8 225 l0 225 -449 0 c-420 0 -450 1 -454 18 -4 16 -5 16 -6 0 -1
-17 -30 -18 -451 -18 l-450 0 0 -455 0 -455 905 0 905 0 0 225 c0 124 3 225 8
225 4 0 22 -9 40 -20 32 -20 32 -20 32 0 0 20 9 20 865 20 856 0 865 0 865
-20 0 -20 0 -20 33 0 17 11 35 20 40 20 4 0 7 -101 7 -225 l0 -225 905 0 905
0 0 455 0 455 -225 0 c-124 0 -225 3 -225 8 0 4 9 22 20 40 20 32 20 32 0 32
-20 0 -20 11 -20 1606 l0 1606 -29 29 -29 29 -641 0 c-633 0 -641 0 -641 20 0
20 0 20 -32 0 -18 -11 -36 -20 -40 -20 -5 0 -8 101 -8 225 l0 225 -905 0 -905
0 0 -455z m1800 0 l0 -445 -895 0 -895 0 0 445 0 445 895 0 895 0 0 -445z
m-1830 -3800 l0 -445 -895 0 -895 0 0 445 0 445 895 0 895 0 0 -445z m3700 0
l0 -445 -895 0 -895 0 0 445 0 445 895 0 895 0 0 -445z"/>
<path d="M3410 4630 c0 -13 -7 -20 -20 -20 -15 0 -20 -7 -20 -25 0 -18 5 -25
20 -25 11 0 20 -7 20 -15 0 -8 -9 -15 -20 -15 -15 0 -20 -7 -20 -25 0 -18 5
-25 20 -25 13 0 20 -7 20 -20 0 -18 7 -20 85 -20 l85 0 0 105 0 105 -85 0
c-78 0 -85 -2 -85 -20z m160 -85 l0 -95 -75 0 c-60 0 -75 3 -75 15 0 8 9 15
20 15 15 0 20 7 20 25 0 18 -5 25 -20 25 -11 0 -20 7 -20 15 0 8 9 15 20 15
15 0 20 7 20 25 0 18 -5 25 -20 25 -11 0 -20 7 -20 15 0 12 15 15 75 15 l75 0
0 -95z"/>
<path d="M1580 830 c0 -13 -7 -20 -20 -20 -15 0 -20 -7 -20 -25 0 -18 5 -25
20 -25 11 0 20 -7 20 -15 0 -8 -9 -15 -20 -15 -15 0 -20 -7 -20 -25 0 -18 5
-25 20 -25 13 0 20 -7 20 -20 0 -18 7 -20 85 -20 l85 0 0 105 0 105 -85 0
c-78 0 -85 -2 -85 -20z m160 -85 l0 -95 -75 0 c-60 0 -75 3 -75 15 0 8 9 15
20 15 15 0 20 7 20 25 0 18 -5 25 -20 25 -11 0 -20 7 -20 15 0 8 9 15 20 15
15 0 20 7 20 25 0 18 -5 25 -20 25 -11 0 -20 7 -20 15 0 12 15 15 75 15 l75 0
0 -95z"/>
<path d="M5280 830 c0 -13 -7 -20 -20 -20 -15 0 -20 -7 -20 -25 0 -18 5 -25
20 -25 11 0 20 -7 20 -15 0 -8 -9 -15 -20 -15 -15 0 -20 -7 -20 -25 0 -18 5
-25 20 -25 13 0 20 -7 20 -20 0 -18 7 -20 85 -20 l85 0 0 105 0 105 -85 0
c-78 0 -85 -2 -85 -20z m160 -85 l0 -95 -75 0 c-60 0 -75 3 -75 15 0 8 9 15
20 15 15 0 20 7 20 25 0 18 -5 25 -20 25 -11 0 -20 7 -20 15 0 8 9 15 20 15
15 0 20 7 20 25 0 18 -5 25 -20 25 -11 0 -20 7 -20 15 0 12 15 15 75 15 l75 0
0 -95z"/>
<path d="M2680 2757 c0 -4 14 -34 30 -67 17 -33 30 -62 30 -65 0 -3 -202 -5
-450 -5 l-450 0 0 -225 c0 -124 -2 -225 -5 -225 -3 0 -33 14 -66 31 -34 17
-63 29 -65 26 -2 -2 19 -14 46 -27 28 -13 50 -29 50 -35 0 -6 -22 -22 -50 -35
-27 -13 -48 -25 -46 -27 2 -3 31 9 65 26 33 17 63 31 66 31 3 0 5 -101 5 -225
l0 -225 905 0 905 0 0 225 c0 124 2 225 5 225 3 0 32 -13 65 -30 76 -38 93
-38 20 0 -46 24 -51 29 -30 31 l25 1 -24 7 c-21 6 -19 9 28 30 28 14 49 26 47
28 -2 3 -31 -9 -65 -26 -33 -17 -63 -31 -66 -31 -3 0 -5 101 -5 225 l0 225
-450 0 c-247 0 -450 2 -450 5 0 3 14 32 30 65 17 33 30 63 30 67 -1 4 -13 -16
-29 -45 -15 -30 -31 -54 -36 -54 -5 0 -21 24 -36 54 -16 29 -28 49 -29 45z
m960 -592 l0 -445 -895 0 -895 0 0 445 0 445 895 0 895 0 0 -445z"/>
<path d="M3410 2530 c0 -13 -7 -20 -20 -20 -15 0 -20 -7 -20 -25 0 -18 5 -25
20 -25 11 0 20 -7 20 -15 0 -8 -9 -15 -20 -15 -15 0 -20 -7 -20 -25 0 -18 5
-25 20 -25 13 0 20 -7 20 -20 0 -18 7 -20 85 -20 l85 0 0 105 0 105 -85 0
c-78 0 -85 -2 -85 -20z m160 -85 l0 -95 -75 0 c-60 0 -75 3 -75 15 0 8 9 15
20 15 15 0 20 7 20 25 0 18 -5 25 -20 25 -11 0 -20 7 -20 15 0 8 9 15 20 15
15 0 20 7 20 25 0 18 -5 25 -20 25 -11 0 -20 7 -20 15 0 12 15 15 75 15 l75 0
0 -95z"/>
</g>
</svg>
